<svg id="675c9b22-108f-42ba-a09d-3152810c47db" data-name="Layer 1" xmlns="http://www.w3.org/2000/svg" width="100" height="100" viewBox="0 0 100 100"><title>amazon-music</title><circle cx="50" cy="50" r="40"/><path d="M62.1,56.86l-1-1.31a5.32,5.32,0,0,1-.62-1.33,6.16,6.16,0,0,1-.32-2V41.77q0-.17,0-1.1a6.13,6.13,0,0,0-.13-1.2q-.09-.28-.26-1a4.51,4.51,0,0,0-.39-1.12,8.33,8.33,0,0,0-.58-.88,8.19,8.19,0,0,0-.8-.92Q55.22,33,50.32,33H49.24a13.47,13.47,0,0,0-6.68,2.06A8.24,8.24,0,0,0,39,40.74a1.26,1.26,0,0,0,0,.3q0,.6.73.77l4.94.6a1.09,1.09,0,0,0,.86-1,3.52,3.52,0,0,1,1.33-2.15,4.7,4.7,0,0,1,2.45-.9h.34a3.22,3.22,0,0,1,2.84,1.29,7.65,7.65,0,0,1,.6,3.7v.73q-2.62.21-3.78.34a21.63,21.63,0,0,0-5.72,1.42,9,9,0,0,0-4,3.18,8.67,8.67,0,0,0-1.46,5.07,7.64,7.64,0,0,0,2.13,5.78,7.53,7.53,0,0,0,5.44,2,13,13,0,0,0,3.61-.43A10.55,10.55,0,0,0,54,58.23q.17.21.6.84a9.6,9.6,0,0,0,.62.84l.64.69q.45.47,1.05,1a1.2,1.2,0,0,0,1.25-.09L62,58.15a.74.74,0,0,0,.34-.6A1.29,1.29,0,0,0,62.1,56.86Zm-8.93-7.48q-.06,1.37-.11,2a8.17,8.17,0,0,1-.33,1.56,6.73,6.73,0,0,1-.79,1.75,4.37,4.37,0,0,1-2.89,2.19l-.32,0a2.2,2.2,0,0,1-.37,0,2.78,2.78,0,0,1-2.21-1.11,4.07,4.07,0,0,1-.72-2.72q.16-3.69,4-4.6a15.66,15.66,0,0,1,3.79-.18Z" style="fill:#fff"/><path d="M26.17,66.2q.22-.34.69,0a45.79,45.79,0,0,0,23.34,6.41,46.26,46.26,0,0,0,16.66-3l.63-.25.58-.25a.77.77,0,0,1,1,.27q.36.52-.24.94-.78.55-2,1.27a32.22,32.22,0,0,1-8.28,3.33,34.64,34.64,0,0,1-32.22-8,.59.59,0,0,1-.25-.43A.46.46,0,0,1,26.17,66.2Z" style="fill:#f90"/><path d="M64.51,67.09a1.35,1.35,0,0,1,.26-.34,6.75,6.75,0,0,1,2.06-1A14,14,0,0,1,70,65.28a2.57,2.57,0,0,1,.82,0q1.93.17,2.32.64a1.41,1.41,0,0,1,.17.77V67a9.8,9.8,0,0,1-.82,3.55,8.25,8.25,0,0,1-2.28,3.29.65.65,0,0,1-.39.17.38.38,0,0,1-.17,0q-.26-.13-.13-.47a16.4,16.4,0,0,0,1.59-5.2,1.1,1.1,0,0,0-.17-.69q-.43-.52-2.41-.52-.73,0-1.72.09l-2,.26a.5.5,0,0,1-.34-.09.14.14,0,0,1,0-.17A.33.33,0,0,1,64.51,67.09Z" style="fill:#f90"/></svg>