<svg id="d67e9c56-3ae6-4ab6-aff8-b38e5be48985" data-name="Layer 1" xmlns="http://www.w3.org/2000/svg" width="100" height="100" viewBox="0 0 100 100"><title>apple-music</title><circle cx="50" cy="50" r="40"/><path d="M50.7,29.09A10.06,10.06,0,0,1,58.08,25a10,10,0,0,1-2.43,7.51c-3.28,3.94-7,3.29-7,3.29S48,32.71,50.7,29.09Z" style="fill:#fff;fill-rule:evenodd"/><path d="M49,38.49c1.59,0,4.54-2.18,8.38-2.18A10.49,10.49,0,0,1,66.63,41a10.21,10.21,0,0,0-5.08,8.9,10.47,10.47,0,0,0,6.33,9.57s-4.43,12.46-10.4,12.46c-2.75,0-4.88-1.85-7.77-1.85S43.82,72,41.92,72c-5.46,0-12.36-11.82-12.36-21.32,0-9.35,5.84-14.25,11.31-14.25C44.44,36.43,47.2,38.49,49,38.49Z" style="fill:#fff;fill-rule:evenodd"/></svg>