<svg id="19c0db1a-a2d6-416a-b7a6-ecc9a047aaf6" data-name="Layer 1" xmlns="http://www.w3.org/2000/svg" width="100" height="100" viewBox="0 0 100 100"><title>soundcloud</title><circle cx="50" cy="50" r="40" style="fill:#f50"/><path d="M63.37,61.1c-3.46,0-6.92-.09-10.37,0-2.78.1-3.84-1.06-3.8-3.82.09-6.56,0-13.12,0-19.67,0-3.75,1.29-5.13,5-5.54a14.27,14.27,0,0,1,15.12,9c.76,1.83,1.55,2.5,3.58,2.51,5.28,0,8.9,3.68,8.93,8.63,0,5.11-3.71,8.76-9.14,8.86C69.58,61.14,66.48,61.1,63.37,61.1Z" style="fill:#fff"/><path d="M45.8,61a15.6,15.6,0,0,1-.73-3.24c-.07-6.54-.12-13.09,0-19.63,0-1,1-2,1.6-3,.47,1,1.33,1.94,1.35,2.92.12,6.54.1,13.09,0,19.63a14.33,14.33,0,0,1-.9,3.41Z" style="fill:#fff"/><path d="M37.39,61.07a14.29,14.29,0,0,1-.91-3.39c-.1-5.59-.12-11.18,0-16.77,0-1,.87-2,1.34-2.94.56.89,1.57,1.76,1.59,2.66.14,5.82.1,11.65,0,17.48a12.63,12.63,0,0,1-.74,2.9Z" style="fill:#fff"/><path d="M41.65,61.06A12.59,12.59,0,0,1,40.79,58c-.09-5.23-.12-10.46,0-15.69,0-1,.91-1.91,1.4-2.87.53.91,1.5,1.81,1.53,2.73.14,5.35.1,10.7,0,16A11.84,11.84,0,0,1,43,61Z" style="fill:#fff"/><path d="M33.55,62c-.7-1.72-1.29-2.51-1.31-3.31-.09-5.23-.12-10.46,0-15.68,0-.73.89-1.44,1.36-2.16.52.67,1.48,1.33,1.49,2,.1,5.46,0,10.93-.05,16.39C35,59.84,34.43,60.42,33.55,62Z" style="fill:#fff"/><path d="M24.93,44.92c2.38,2.68,2.43,13.25.28,16C23,58.82,22.67,48.38,24.93,44.92Z" style="fill:#fff"/><path d="M29.34,61.15c-2.1-3-2.17-11.61-.29-14.56C31.58,48.33,31.89,57.83,29.34,61.15Z" style="fill:#fff"/><path d="M20.93,58.28c-2.36-2.73-2.38-7.72-.25-10.27C22.94,50.07,23.14,54.93,20.93,58.28Z" style="fill:#fff"/></svg>