<svg id="f9d5b8a0-7f6a-4cf0-8556-197b110771da" data-name="Layer 1" xmlns="http://www.w3.org/2000/svg" width="100" height="100" viewBox="0 0 100 100"><title>spotify</title><circle cx="50.01" cy="49.69" r="39.99" style="fill:#1ed761"/><path d="M80.1,42.26a3.76,3.76,0,0,1-5.66,3.27A44.89,44.89,0,0,0,69,42.9a57.44,57.44,0,0,0-11.45-3.17,72.38,72.38,0,0,0-8.24-1,77.19,77.19,0,0,0-8.63,0,61.27,61.27,0,0,0-9.79,1.23c-1.19.26-2.37.58-3.55.9a3.91,3.91,0,0,1-2.15,0,3.76,3.76,0,0,1-2.71-3.52A3.68,3.68,0,0,1,25,33.72c1.14-.38,2.31-.67,3.48-.94a65.3,65.3,0,0,1,8.79-1.35,78.92,78.92,0,0,1,9.44-.29A75.78,75.78,0,0,1,69.47,35,48.44,48.44,0,0,1,78.1,39,3.75,3.75,0,0,1,80,41.45C80.05,41.71,80.06,42,80.1,42.26Z" style="fill-rule:evenodd"/><path d="M43.44,51.3a49.88,49.88,0,0,0-14,2,3.32,3.32,0,0,1-2.25-.06,3.12,3.12,0,0,1-1.94-3,3.05,3.05,0,0,1,2.14-2.88c1.3-.4,2.63-.74,4-1a55.53,55.53,0,0,1,10-1.24,61.2,61.2,0,0,1,21.16,2.87,48.13,48.13,0,0,1,10,4.45l.47.28A3.13,3.13,0,0,1,69.66,58c-.87-.49-1.73-1-2.63-1.46a47.8,47.8,0,0,0-12.92-4.29A58.1,58.1,0,0,0,43.44,51.3Z" style="fill-rule:evenodd"/><path d="M44.17,58.16a50,50,0,0,1,15.59,2.48,41.38,41.38,0,0,1,8,3.66,6.81,6.81,0,0,1,.64.41A2.5,2.5,0,0,1,65.86,69a6.43,6.43,0,0,1-.67-.37,38.13,38.13,0,0,0-13.83-4.87,47.61,47.61,0,0,0-9.1-.5A65.94,65.94,0,0,0,30.59,64.8a5.84,5.84,0,0,1-1.18.17A2.41,2.41,0,0,1,27,63a2.47,2.47,0,0,1,1.49-2.8,4.76,4.76,0,0,1,.73-.21,70.81,70.81,0,0,1,9.54-1.51C40.57,58.32,42.37,58.26,44.17,58.16Z" style="fill-rule:evenodd"/></svg>